<svg width="444" height="428" viewBox="0 0 444 428" fill="none" xmlns="http://www.w3.org/2000/svg">
<path d="M68.8037 180.356L221.572 95.1582L60.2292 5.20293C54.1257 1.79596 47.2011 0.00148064 40.1517 9.1588e-07C33.1023 -0.00147881 26.1767 1.79008 20.0717 5.19449C13.9667 8.59889 8.89764 13.4961 5.37417 19.3934C1.8507 25.2908 -0.00289615 31.9804 3.39655e-06 38.7893V389.211C-0.00289615 396.02 1.8507 402.709 5.37417 408.607C8.89764 414.504 13.9667 419.401 20.0717 422.806C26.1767 426.21 33.1023 428.001 40.1517 428C47.2011 427.999 54.1257 426.204 60.2292 422.797L221.572 332.813L68.8037 247.615C62.6766 244.219 57.5858 239.321 54.0456 233.416C50.5054 227.512 48.6411 220.809 48.6411 213.986C48.6411 207.162 50.5054 200.46 54.0456 194.555C57.5858 188.65 62.6766 183.753 68.8037 180.356Z" fill="#2EA683"/>
<path d="M443.184 38.7607C443.182 31.9542 441.325 25.2682 437.799 19.3748C434.273 13.4814 429.204 8.58833 423.1 5.18732C416.996 1.78631 410.072 -0.00273357 403.025 3.13505e-06C395.979 0.00273984 389.056 1.79718 382.955 5.20293L221.583 95.1869L374.381 180.385C380.487 183.787 385.558 188.682 389.084 194.578C392.61 200.474 394.466 207.163 394.466 213.971C394.466 220.78 392.61 227.469 389.084 233.365C385.558 239.261 380.487 244.156 374.381 247.558L221.583 332.756L382.955 422.74C389.054 426.145 395.974 427.939 403.018 427.943C410.062 427.947 416.984 426.16 423.087 422.763C429.19 419.365 434.26 414.476 437.788 408.587C441.316 402.697 443.177 396.015 443.184 389.211V38.7607Z" fill="#F39204"/>
<path d="M374.355 180.355L221.556 95.157L68.7878 180.355C62.6816 183.757 57.6105 188.652 54.0847 194.548C50.5588 200.444 48.7025 207.133 48.7025 213.942C48.7025 220.75 50.5588 227.439 54.0847 233.335C57.6105 239.231 62.6816 244.126 68.7878 247.528L221.556 332.726L374.355 247.528C380.461 244.126 385.532 239.231 389.058 233.335C392.584 227.439 394.44 220.75 394.44 213.942C394.44 207.133 392.584 200.444 389.058 194.548C385.532 188.652 380.461 183.757 374.355 180.355V180.355Z" fill="#3D6032"/>
</svg>
